<svg xmlns="http://www.w3.org/2000/svg" xmlns:xlink="http://www.w3.org/1999/xlink" width="120" height="366" viewBox="0 0 120 366">
  <defs>
    <clipPath id="clip-path">
      <rect id="Rectangle_128" data-name="Rectangle 128" width="120" height="366" transform="translate(1246 1582)" fill="#fff"/>
    </clipPath>
  </defs>
  <g id="Groupe_274" data-name="Groupe 274" transform="translate(-1246 -1582)">
    <g id="Groupe_de_masques_3" data-name="Groupe de masques 3" clip-path="url(#clip-path)">
      <path id="Tracé_202" data-name="Tracé 202" d="M1008.853,237.252s-15-6.107-62.665,15.8-53.5,19.118-65.852,15.8-19.251-4.116-32.395-22.437c0,0-9.293-50.584-18.322-58.417s-47.53,4.514-47.53,4.514-45.937,10.621-54.832-50.849c0,0,6.24-46.335-2.257-60.541,0,0,17.127,7.435,45.273-4.514s50.716,12.878,50.716,12.878,7.17,18.454,6.373,29.341,3.718,15.135,17.26,9.825c0,0,6.638-9.426-2.788-24.96s-16.065-27.084-13.409-39.166,10.09-28.81,34.253-37.174,56.956-9.957,72.622-16.463S955.082,0,955.082,0s-9.692,9.692,13.144,50.849,8.231,58.948,8.231,58.948-12.081,28.943-65.719,26.553c0,0-51.647,1.859-23.5,23.765,0,0,18.057-3.717,45.008-12.214s46.335,26.819,51.248,51.38C988.274,223.843,1008.853,237.252,1008.853,237.252Z" transform="translate(812.323 2488.074) rotate(-59)" fill="#38d39f"/>
      <path id="Tracé_203" data-name="Tracé 203" d="M896.559,23.433l.265-.133c2.124,7.833-20.977,39.431-40.759,64.391l-.265-.133C883.813,52.376,898.285,29.54,896.559,23.433Z" transform="translate(840.94 2455.271) rotate(-59)" fill="#444053"/>
      <path id="Tracé_204" data-name="Tracé 204" d="M870.027,71.4l.133.266c-15.8,20.048-35.581,43.945-51.381,61.6-1.46,1.726-3.053,3.452-4.381,5.311l-.4-.4c1.46-1.859,2.921-3.585,4.514-5.311C834.18,115.213,854.361,91.448,870.027,71.4Z" transform="translate(847.396 2475.127) rotate(-59)" fill="#444053"/>
      <path id="Tracé_205" data-name="Tracé 205" d="M823.243,121.4l.265.531c-28.81,35.98-30.8,91.874-30.8,92.4l-6.107-6.9C786.733,206.768,794.168,157.645,823.243,121.4Z" transform="translate(856.814 2491.261) rotate(-59)" fill="#444053"/>
      <path id="Tracé_206" data-name="Tracé 206" d="M968.974,193.1s-33.988-17.658-60.541-11.285-86.165-22.437-86.165-22.437-25.358-10.356-30.4-22.039c0,0-17.392-18.454-18.322-27.881S755.619,76,744.6,75.2" transform="translate(836.751 2495.26) rotate(-59)" fill="none" stroke="#444053" stroke-miterlimit="10" stroke-width="1"/>
      <path id="Tracé_207" data-name="Tracé 207" d="M913.675,182.96S896.548,171.409,898.54,158" transform="translate(885.957 2466.043) rotate(-59)" fill="none" stroke="#444053" stroke-miterlimit="10" stroke-width="1"/>
      <path id="Tracé_208" data-name="Tracé 208" d="M896.751,198.913s-24.561-8.9-26.951-43.813" transform="translate(880.32 2473.581) rotate(-59)" fill="none" stroke="#444053" stroke-miterlimit="10" stroke-width="1"/>
      <path id="Tracé_209" data-name="Tracé 209" d="M864.55,208.072s-23.366-19.384-15.666-53.372" transform="translate(876.415 2479.825) rotate(-59)" fill="none" stroke="#444053" stroke-miterlimit="10" stroke-width="1"/>
      <path id="Tracé_210" data-name="Tracé 210" d="M826.337,201s-15.533-32.66-1.726-53.9" transform="translate(869.482 2486.528) rotate(-59)" fill="none" stroke="#444053" stroke-miterlimit="10" stroke-width="1"/>
      <path id="Tracé_211" data-name="Tracé 211" d="M917.468,147.8s-17.658,5.576-13.941,15" transform="translate(883.874 2463.021) rotate(-59)" fill="none" stroke="#444053" stroke-miterlimit="10" stroke-width="1"/>
      <path id="Tracé_212" data-name="Tracé 212" d="M903.8,123.6s-23.765,7.568-24.3,41.025" transform="translate(873.11 2465.54) rotate(-59)" fill="none" stroke="#444053" stroke-miterlimit="10" stroke-width="1"/>
      <path id="Tracé_213" data-name="Tracé 213" d="M877.869,117.7s-21.641,26.686-20.048,50.849" transform="translate(867.78 2470.657) rotate(-59)" fill="none" stroke="#444053" stroke-miterlimit="10" stroke-width="1"/>
      <path id="Tracé_214" data-name="Tracé 214" d="M849.082,125.6s-21.508,20.446-18.72,31.864" transform="translate(865.337 2479.749) rotate(-59)" fill="none" stroke="#444053" stroke-miterlimit="10" stroke-width="1"/>
      <path id="Tracé_215" data-name="Tracé 215" d="M840.369,120.954s-20.048,3.585-22.969-3.054" transform="translate(861.029 2482.019) rotate(-59)" fill="none" stroke="#444053" stroke-miterlimit="10" stroke-width="1"/>
      <path id="Tracé_216" data-name="Tracé 216" d="M815,101.9s10.223,13.409,12.745,10.488" transform="translate(856.13 2479.994) rotate(-59)" fill="none" stroke="#444053" stroke-miterlimit="10" stroke-width="1"/>
      <path id="Tracé_217" data-name="Tracé 217" d="M906.134,98.351S855.418,102.068,844,86.8" transform="translate(856.783 2469.301) rotate(-59)" fill="none" stroke="#444053" stroke-miterlimit="10" stroke-width="1"/>
      <path id="Tracé_218" data-name="Tracé 218" d="M807,50.8s23.766,50.982,41.025,57.487" transform="translate(840.429 2473.617) rotate(-59)" fill="none" stroke="#444053" stroke-miterlimit="10" stroke-width="1"/>
      <path id="Tracé_219" data-name="Tracé 219" d="M825.8,32.5s14.6,46.866,32.661,61.6" transform="translate(838.462 2465.249) rotate(-59)" fill="none" stroke="#444053" stroke-miterlimit="10" stroke-width="1"/>
      <path id="Tracé_220" data-name="Tracé 220" d="M922.1,66.333S883.6,82.8,860.5,66.2" transform="translate(853.782 2461.19) rotate(-59)" fill="none" stroke="#444053" stroke-miterlimit="10" stroke-width="0.75"/>
      <path id="Tracé_221" data-name="Tracé 221" d="M851.6,25s8.762,34.519,20.711,42.883" transform="translate(840.709 2456.737) rotate(-59)" fill="none" stroke="#444053" stroke-miterlimit="10" stroke-width="0.75"/>
      <path id="Tracé_222" data-name="Tracé 222" d="M909.84,37.2S888.2,45.431,880.1,39.059" transform="translate(848.945 2450.792) rotate(-59)" fill="none" stroke="#444053" stroke-miterlimit="10" stroke-width="0.75"/>
      <path id="Tracé_223" data-name="Tracé 223" d="M803.032,110.4s0,30.138-8.232,32.262" transform="translate(855.109 2487.101) rotate(-59)" fill="none" stroke="#444053" stroke-miterlimit="10" stroke-width="1"/>
      <path id="Tracé_224" data-name="Tracé 224" d="M750.6,143.14s32.528,2.788,47.53-13.94" transform="translate(852.93 2502.687) rotate(-59)" fill="none" stroke="#444053" stroke-miterlimit="10" stroke-width="1"/>
      <path id="Tracé_225" data-name="Tracé 225" d="M802.007,83.6s-7.833,30.536-29.607,38.768" transform="translate(843.802 2488.87) rotate(-59)" fill="none" stroke="#444053" stroke-miterlimit="10" stroke-width="1"/>
      <path id="Tracé_226" data-name="Tracé 226" d="M735.9,118.547s22.968,7.966,42.884-12.347" transform="translate(843.99 2502.935) rotate(-59)" fill="none" stroke="#444053" stroke-miterlimit="10" stroke-width="1"/>
      <path id="Tracé_227" data-name="Tracé 227" d="M779.43,63.8s-2.124,25.889-16.33,37.971" transform="translate(836.671 2488.141) rotate(-59)" fill="none" stroke="#444053" stroke-miterlimit="10" stroke-width="1"/>
      <path id="Tracé_228" data-name="Tracé 228" d="M736.6,87.307s19.118.133,23.633-6.107" transform="translate(837.086 2498.519) rotate(-59)" fill="none" stroke="#444053" stroke-miterlimit="10" stroke-width="1"/>
      <path id="Tracé_114" data-name="Tracé 114" d="M200.062,190.69s-14.636-25.92-36.67-33.371a45.137,45.137,0,0,1-22.833-17.085A79.4,79.4,0,0,1,133.8,128.1" transform="matrix(0.978, 0.208, -0.208, 0.978, 1224.752, 1464.583)" fill="none" stroke="#535461" stroke-miterlimit="10" stroke-width="2"/>
      <path id="Tracé_115" data-name="Tracé 115" d="M106.158,109.452c2.5,2.448,14.21,4.95,14.21,4.95s-2.874-11.6-5.376-14.051a6.323,6.323,0,1,0-8.941,8.941c0,.053.053.106.106.16Z" transform="matrix(0.978, 0.208, -0.208, 0.978, 1235.426, 1481.019)" fill="#38d39f"/>
      <path id="Tracé_116" data-name="Tracé 116" d="M115.824,147.544c3.406.692,14.636-3.566,14.636-3.566s-8.729-8.2-12.135-8.888a6.344,6.344,0,0,0-7.451,5,6.243,6.243,0,0,0,4.95,7.451Z" transform="matrix(0.978, 0.208, -0.208, 0.978, 1235.975, 1463.686)" fill="#38d39f"/>
      <path id="Tracé_117" data-name="Tracé 117" d="M158.094,190.534c3.3-1.118,10.8-10.432,10.8-10.432s-11.656-2.661-14.956-1.543a6.337,6.337,0,1,0,4.151,11.975Z" transform="matrix(0.978, 0.208, -0.208, 0.978, 1222.373, 1440.078)" fill="#38d39f"/>
      <path id="Tracé_118" data-name="Tracé 118" d="M200.559,214.87c3.459-.585,12.454-8.462,12.454-8.462S202,201.83,198.537,202.362a6.335,6.335,0,0,0,2.022,12.507Z" transform="matrix(0.978, 0.208, -0.208, 0.978, 1204.778, 1424.844)" fill="#38d39f"/>
      <path id="Tracé_119" data-name="Tracé 119" d="M154.967,129.333c0,3.513-6.333,13.625-6.333,13.625s-6.334-10.112-6.334-13.625a6.334,6.334,0,0,1,12.667,0Z" transform="matrix(0.978, 0.208, -0.208, 0.978, 1220.367, 1466.09)" fill="#38d39f"/>
      <path id="Tracé_120" data-name="Tracé 120" d="M203.483,157.067c-1.064,3.353-10.112,11.124-10.112,11.124s-3.034-11.6-1.969-14.9a6.329,6.329,0,0,1,12.082,3.779Z" transform="matrix(0.978, 0.208, -0.208, 0.978, 1200.517, 1449.515)" fill="#38d39f"/>
      <path id="Tracé_121" data-name="Tracé 121" d="M246.132,192.979c-.479,3.459-8.09,12.667-8.09,12.667s-4.95-10.911-4.471-14.37a6.338,6.338,0,1,1,12.561,1.7Z" transform="matrix(0.978, 0.208, -0.208, 0.978, 1184.727, 1428.488)" fill="#38d39f"/>
      <path id="Tracé_122" data-name="Tracé 122" d="M106.158,109.452c2.5,2.448,14.21,4.95,14.21,4.95s-2.874-11.6-5.376-14.051a6.323,6.323,0,1,0-8.941,8.941c0,.053.053.106.106.16Z" transform="matrix(0.978, 0.208, -0.208, 0.978, 1235.426, 1481.019)" opacity="0.25"/>
      <path id="Tracé_123" data-name="Tracé 123" d="M115.824,147.544c3.406.692,14.636-3.566,14.636-3.566s-8.729-8.2-12.135-8.888a6.344,6.344,0,0,0-7.451,5,6.243,6.243,0,0,0,4.95,7.451Z" transform="matrix(0.978, 0.208, -0.208, 0.978, 1235.975, 1463.686)" opacity="0.25"/>
      <path id="Tracé_124" data-name="Tracé 124" d="M158.094,190.534c3.3-1.118,10.8-10.432,10.8-10.432s-11.656-2.661-14.956-1.543a6.337,6.337,0,1,0,4.151,11.975Z" transform="matrix(0.978, 0.208, -0.208, 0.978, 1222.373, 1440.078)" opacity="0.25"/>
      <path id="Tracé_125" data-name="Tracé 125" d="M200.559,214.87c3.459-.585,12.454-8.462,12.454-8.462S202,201.83,198.537,202.362a6.335,6.335,0,0,0,2.022,12.507Z" transform="matrix(0.978, 0.208, -0.208, 0.978, 1204.778, 1424.844)" opacity="0.25"/>
      <path id="Tracé_126" data-name="Tracé 126" d="M154.967,129.333c0,3.513-6.333,13.625-6.333,13.625s-6.334-10.112-6.334-13.625a6.334,6.334,0,0,1,12.667,0Z" transform="matrix(0.978, 0.208, -0.208, 0.978, 1220.367, 1466.09)" opacity="0.25"/>
      <path id="Tracé_127" data-name="Tracé 127" d="M203.483,157.067c-1.064,3.353-10.112,11.124-10.112,11.124s-3.034-11.6-1.969-14.9a6.329,6.329,0,0,1,12.082,3.779Z" transform="matrix(0.978, 0.208, -0.208, 0.978, 1200.517, 1449.515)" opacity="0.25"/>
      <path id="Tracé_128" data-name="Tracé 128" d="M246.132,192.979c-.479,3.459-8.09,12.667-8.09,12.667s-4.95-10.911-4.471-14.37a6.338,6.338,0,1,1,12.561,1.7Z" transform="matrix(0.978, 0.208, -0.208, 0.978, 1184.727, 1428.488)" opacity="0.25"/>
      <path id="Tracé_129" data-name="Tracé 129" d="M225.834,170.939s-2.874-29.645-20.012-45.4a44.7,44.7,0,0,1-13.944-24.855A75.068,75.068,0,0,1,190.6,86.9" transform="matrix(0.978, 0.208, -0.208, 0.978, 1194.756, 1477.91)" fill="none" stroke="#535461" stroke-miterlimit="10" stroke-width="2"/>
      <path id="Tracé_130" data-name="Tracé 130" d="M170.087,60.356c1.331,3.247,10.964,10.272,10.964,10.272s2.076-11.762.8-15.009a6.34,6.34,0,1,0-11.762,4.737Z" transform="matrix(0.978, 0.208, -0.208, 0.978, 1200.93, 1496.075)" fill="#38d39f"/>
      <path id="Tracé_131" data-name="Tracé 131" d="M163.524,99.059c2.874,2.022,14.8,2.661,14.8,2.661s-4.63-11.017-7.5-13.04a6.342,6.342,0,0,0-7.292,10.378Z" transform="matrix(0.978, 0.208, -0.208, 0.978, 1208.442, 1480.522)" fill="#38d39f"/>
      <path id="Tracé_132" data-name="Tracé 132" d="M184.785,155.391c3.46.266,14.1-5.163,14.1-5.163s-9.58-7.132-13.04-7.451a6.329,6.329,0,1,0-1.064,12.614Z" transform="matrix(0.978, 0.208, -0.208, 0.978, 1205.512, 1453.487)" fill="#38d39f"/>
      <path id="Tracé_133" data-name="Tracé 133" d="M213.474,194.831c3.406.852,14.8-2.714,14.8-2.714s-8.25-8.675-11.6-9.58a6.329,6.329,0,0,0-3.779,12.082,4.043,4.043,0,0,1,.586.213Z" transform="matrix(0.978, 0.208, -0.208, 0.978, 1195.867, 1432.554)" fill="#38d39f"/>
      <path id="Tracé_134" data-name="Tracé 134" d="M206.6,98.147c-1.437,3.193-11.337,9.9-11.337,9.9s-1.7-11.815-.266-15.062a6.35,6.35,0,1,1,11.6,5.163Z" transform="matrix(0.978, 0.208, -0.208, 0.978, 1193.235, 1476.481)" fill="#38d39f"/>
      <path id="Tracé_135" data-name="Tracé 135" d="M237.385,143.173c-2.289,2.608-13.785,6.067-13.785,6.067s1.916-11.815,4.258-14.423a6.336,6.336,0,1,1,9.527,8.356Z" transform="matrix(0.978, 0.208, -0.208, 0.978, 1184.109, 1453.757)" fill="#38d39f"/>
      <path id="Tracé_136" data-name="Tracé 136" d="M263.506,193.29c-1.81,2.98-12.507,8.3-12.507,8.3s-.106-11.975,1.756-14.956a6.322,6.322,0,1,1,10.751,6.653Z" transform="matrix(0.978, 0.208, -0.208, 0.978, 1176.527, 1427.787)" fill="#38d39f"/>
    </g>
  </g>
</svg>
