<?xml version="1.0" encoding="UTF-8"?><svg id="Calque_2" xmlns="http://www.w3.org/2000/svg" xmlns:xlink="http://www.w3.org/1999/xlink" viewBox="0 0 110.12 120.15"><defs><style>.cls-1{fill:url(#linear-gradient-2);}.cls-2{clip-path:url(#clippath-2);}.cls-3{clip-path:url(#clippath-1);}.cls-4{fill:#035c51;fill-rule:evenodd;}.cls-5{fill:url(#linear-gradient-5);}.cls-6{clip-path:url(#clippath);}.cls-7{clip-rule:evenodd;fill:none;}.cls-8{mask:url(#mask-1);}.cls-9{mask:url(#mask);}.cls-10{fill:url(#linear-gradient-3);}.cls-11{fill:url(#linear-gradient);}.cls-12{fill:url(#linear-gradient-4);}</style><clipPath id="clippath"><path class="cls-7" d="M69.18,0C96.29,57.21,16.99,72.26,11.33,111.76-20.03,50.29,18.41,.7,69.18,0"/></clipPath><linearGradient id="linear-gradient" x1="38.13" y1="115.26" x2="38.13" y2="-2.09" gradientTransform="matrix(1, 0, 0, 1, 0, 0)" gradientUnits="userSpaceOnUse"><stop offset="0" stop-color="#07aca1"/><stop offset="1" stop-color="#d2da46"/></linearGradient><linearGradient id="linear-gradient-2" x1="-139.35" y1="421.24" x2="-139.35" y2="202.49" gradientTransform="translate(181.8 -198.49)" gradientUnits="userSpaceOnUse"><stop offset="0" stop-color="#fff"/><stop offset="1" stop-color="#000"/></linearGradient><mask id="mask" x="10.1" width="64.72" height="111.76" maskUnits="userSpaceOnUse"><rect class="cls-1" x="10.1" width="64.72" height="111.76"/></mask><clipPath id="clippath-1"><path class="cls-7" d="M67.83,51.83c-16.57,34.97,31.91,44.17,35.37,68.32,19.17-37.57-4.33-67.89-35.37-68.32"/></clipPath><linearGradient id="linear-gradient-3" x1="86.81" y1="115.26" x2="86.81" y2="-2.09" xlink:href="#linear-gradient"/><linearGradient id="linear-gradient-4" x1="-167.9" y1="410.39" x2="-167.9" y2="191.63" gradientTransform="translate(252.07 -187.64)" xlink:href="#linear-gradient-2"/><mask id="mask-1" x="64.39" y="51.83" width="39.56" height="68.32" maskUnits="userSpaceOnUse"><rect class="cls-12" x="64.39" y="51.83" width="39.56" height="68.32"/></mask><clipPath id="clippath-2"><path class="cls-7" d="M55.06,90.26c6.25,0,11.31,5.06,11.31,11.31s-5.06,11.31-11.31,11.31-11.31-5.06-11.31-11.31,5.06-11.31,11.31-11.31"/></clipPath><linearGradient id="linear-gradient-5" x1="55.06" y1="115.26" x2="55.06" y2="-2.09" xlink:href="#linear-gradient"/></defs><g id="Calque_1-2"><g><g class="cls-6"><rect class="cls-11" x="-20.03" width="116.32" height="111.76"/></g><g class="cls-9"><path class="cls-4" d="M11.33,111.76C16.99,72.26,96.29,57.21,69.18,0,63.32,42.01,.59,59.03,11.33,111.76Z"/></g><g class="cls-3"><rect class="cls-10" x="51.26" y="51.83" width="71.11" height="68.32"/></g><g class="cls-8"><path class="cls-4" d="M103.2,120.15c6.57-32.23-31.78-42.64-35.37-68.32-16.57,34.97,31.91,44.17,35.37,68.32Z"/></g><g class="cls-2"><rect class="cls-5" x="43.75" y="90.26" width="22.62" height="22.62"/></g></g></g></svg>